<?xml version="1.0" encoding="UTF-8"?>
<!-- Generator: Adobe Illustrator 19.2.1, SVG Export Plug-In . SVG Version: 6.00 Build 0)  -->
<svg version="1.1" id="Layer_1" xmlns="http://www.w3.org/2000/svg" xmlns:xlink="http://www.w3.org/1999/xlink" x="0px" y="0px" viewBox="0 0 500 500" style="enable-background:new 0 0 500 500;" xml:space="preserve">
<style type="text/css">
	.st0{fill:#4F679E;}
</style>
<path class="st0" d="M53.5,56.5h15.1h30.2V32.2C98.9,18.9,109,8,121.5,8c12.4,0,22.7,11,22.7,24.3v24.3h30.2h75.5h75.5h30.2V32.2  c0-13.3,10.2-24.3,22.7-24.3S401,18.8,401,32.2v24.3h30.2h15.1c24.9,0,45.3,21.8,45.3,48.6v340c0,26.7-20.4,48.6-45.3,48.6H249.9  H53.5c-24.9,0-45.3-21.9-45.3-48.6v-340C8.2,78.4,28.6,56.5,53.5,56.5L53.5,56.5z M355.6,364.2v48.6H416v-48.6H355.6L355.6,364.2z   M264.9,364.2v48.6h60.4v-48.6H264.9L264.9,364.2z M174.3,364.2v48.6h60.4v-48.6H174.3L174.3,364.2z M83.7,364.2v48.6h60.4v-48.6  H83.7L83.7,364.2z M355.6,283.2v48.6H416v-48.6H355.6L355.6,283.2z M264.9,283.2v48.6h60.4v-48.6H264.9L264.9,283.2z M174.3,283.2  v48.6h60.4v-48.6H174.3L174.3,283.2z M83.7,283.2v48.6h60.4v-48.6H83.7L83.7,283.2z M355.6,202.2v48.6H416v-48.6L355.6,202.2  L355.6,202.2z M264.9,202.2v48.6h60.4v-48.6L264.9,202.2L264.9,202.2z M174.3,202.2v48.6h60.4v-48.6L174.3,202.2L174.3,202.2z   M83.7,202.2v48.6h60.4v-48.6L83.7,202.2L83.7,202.2z M249.9,169.9H53.5v275.2h196.3h196.3V169.9H249.9z"/>
</svg>