<?xml version="1.0" encoding="iso-8859-1"?>
<!-- Generator: Adobe Illustrator 19.0.0, SVG Export Plug-In . SVG Version: 6.00 Build 0)  -->
<svg xmlns="http://www.w3.org/2000/svg" xmlns:xlink="http://www.w3.org/1999/xlink" version="1.1" id="Capa_1" x="0px" y="0px" viewBox="0 0 511.993 511.993" style="enable-background:new 0 0 511.993 511.993;" xml:space="preserve" width="512px" height="512px">
<g>
	<g>
		<circle cx="176.206" cy="43.55" r="43.55" fill="#FFFFFF"/>
	</g>
</g>
<g>
	<g>
		<path d="M241.953,206.208l-66.337-16.119l-20.859-57.47l22.111,32.477l-0.507-41.217c-0.161-13.072-8.879-23.985-20.826-26.019    c-15.384-2.619-26.206-4.462-43.281-7.37c-11.971-2.038-23.776,5.353-28.264,17.661L10.132,310.728    c-2.514,6.897,1.415,14.395,8.093,15.532c7.818,1.331,18.625,3.171,30.967,5.272v47.422L6.713,476.722    c-5.55,12.772,0.306,27.626,13.079,33.176c12.764,5.547,27.623-0.299,33.176-13.079l44.568-102.575    c1.378-3.171,2.089-6.592,2.089-10.049v-44.077c2.987,0.508,5.962,1.015,8.911,1.517V486.77c0,13.926,11.29,25.216,25.216,25.216    s25.216-11.29,25.216-25.216V350.224c2.636,0.448,5.077,0.864,7.273,1.239c6.692,1.14,12.868-4.623,12.778-11.978l-1.102-89.405    c-12.534-3.046-20.373-4.951-33.726-8.194c-10.737-2.609-18.2-11.742-19.248-22.146l-7.286-73.651l24.469,67.413    c2.255,6.212,7.469,10.884,13.892,12.445l76.619,18.616c10.594,2.574,21.263-3.929,23.836-14.518    C259.045,219.454,252.545,208.782,241.953,206.208z" fill="#FFFFFF"/>
	</g>
</g>
<g>
	<g>
		<circle cx="429.234" cy="165.835" r="37.01" fill="#FFFFFF"/>
	</g>
</g>
<g>
	<g>
		<path d="M493.338,271.933v-31.982c0-6.034-4.892-10.927-10.926-10.927h-21.902c-2.806-6.69-8.988-11.186-16.029-11.186    c-11.648,0-19.173,0-29.48,0l-26.829-20.028l-16.976-52.445l14.53-38.697c1.514-4.032-0.527-8.528-4.559-10.041l-34.311-12.884    c-4.032-1.514-8.528,0.527-10.041,4.559l-22.478,59.863c-1.514,4.032,0.527,8.528,4.559,10.041l31.474,11.818l13.07,40.377    c0.874,2.701,2.565,5.064,4.841,6.761l27.594,20.6l-1.62,8.855l17.096-9.771l-30.511,29.517l-46.308-10.134    c-7.39-1.621-14.699,3.064-16.316,10.458c-1.618,7.393,3.065,14.698,10.458,16.316c58.284,12.754,54.314,12.021,56.414,12.021    c3.518,0,6.946-1.357,9.529-3.855l35.792-34.627l-26.967,43.749c-4.027,6.532-11.629,9.513-18.725,7.973l-1.674-0.369    c-1.412,7.72-11.795,64.464-13.285,72.602c-0.92,5.031,2.644,9.689,7.351,9.689c2.034,0,4.364,0,6.921,0l-8.091,18.396    c-0.39,0.886-0.705,1.803-0.944,2.742l-20.011,78.843c-2.379,9.373,3.29,18.901,12.664,21.279    c9.362,2.378,18.898-3.283,21.279-12.664l19.654-77.433l13.707-31.163c2.867,0,5.752,0,8.634,0v26.943v7.367    c0,2.211,0.419,4.4,1.233,6.456l27.754,69.978c3.565,8.988,13.74,13.386,22.732,9.82c8.988-3.565,13.386-13.743,9.82-22.732    l-26.521-66.868v-30.966c6.028,0,11.319,0,15.428,0c4.604,0,8.287-4.571,7.351-9.689l-8.878-48.524h2.573    c5.503,0,10.042-4.072,10.802-9.364c0.042,0,0.083,0.006,0.125,0.006c7.752,0,14.037-6.284,14.037-14.037v-22.615    C507.374,278.218,501.09,271.933,493.338,271.933z" fill="#FFFFFF"/>
	</g>
</g>
<g>
</g>
<g>
</g>
<g>
</g>
<g>
</g>
<g>
</g>
<g>
</g>
<g>
</g>
<g>
</g>
<g>
</g>
<g>
</g>
<g>
</g>
<g>
</g>
<g>
</g>
<g>
</g>
<g>
</g>
</svg>
