<?xml version="1.0" encoding="iso-8859-1"?>
<!-- Generator: Adobe Illustrator 16.0.0, SVG Export Plug-In . SVG Version: 6.00 Build 0)  -->
<!DOCTYPE svg PUBLIC "-//W3C//DTD SVG 1.1//EN" "http://www.w3.org/Graphics/SVG/1.1/DTD/svg11.dtd">
<svg xmlns="http://www.w3.org/2000/svg" xmlns:xlink="http://www.w3.org/1999/xlink" version="1.1" id="Capa_1" x="0px" y="0px" width="512px" height="512px" viewBox="0 0 30.486 30.486" style="enable-background:new 0 0 30.486 30.486;" xml:space="preserve">
<g>
	<g>
		<circle cx="8.316" cy="4.25" r="4.25" fill="#FFFFFF"/>
		<circle cx="22.17" cy="4.546" r="4.25" fill="#FFFFFF"/>
		<path d="M24.506,11.414L24.506,11.414c-0.164,0.158-0.336,0.32-0.515,0.492c-0.112,0.108-0.228,0.218-0.346,0.33    c-0.03,0.029-0.062,0.059-0.091,0.088c-0.895,0.857-1.893,1.815-2.771,2.661l0,0c-0.173,0.167-0.339,0.326-0.5,0.481l0,0    c-0.039,0.037-0.074,0.072-0.113,0.109c-0.752,0.725-1.336,1.286-1.59,1.532c-0.019,0.018-0.029,0.026-0.043,0.041    c-0.064,0.063-0.104,0.102-0.104,0.102l1.442,1.518c0,0,0.358-0.317,0.908-0.806l0,0c0.124-0.11,0.271-0.239,0.412-0.367    c0.023-0.021,0.046-0.04,0.069-0.062c0.081-0.071,0.159-0.143,0.243-0.217c1.317-1.174,3.101-2.774,4.108-3.731    c0.003-0.002,0.005-0.004,0.005-0.006c0.16-0.152,0.299-0.285,0.414-0.398c0.006-0.008,0.02-0.02,0.025-0.026v-0.001    c0.119-0.118,0.219-0.222,0.273-0.286c0.656-0.779,0.83-3.631-0.203-2.988C26.078,9.918,25.414,10.547,24.506,11.414z" fill="#FFFFFF"/>
		<path d="M20.285,14.772l0.5-2.551h-9.946l0.323,2.811c0.561,0.522,1.121,1.045,1.665,1.552l0.362,0.338l-0.335,0.365l-0.627,0.683    h6.2l-0.356-0.375l-0.342-0.358l0.356-0.344C18.803,16.2,19.549,15.48,20.285,14.772z M15.683,16.658    c-0.432,0-0.781-0.35-0.781-0.781c0-0.431,0.35-0.781,0.781-0.781c0.431,0,0.78,0.35,0.78,0.781    C16.463,16.309,16.114,16.658,15.683,16.658z" fill="#FFFFFF"/>
		<path d="M26.006,28.545h-0.291V20.98v-0.715v-0.968h0.222l0.08-1.586l0.039-3.854c-1.665,1.591-5.649,5.107-5.851,5.285    l-0.361,0.317l-0.33-0.349l-0.61-0.644h-0.621l0.011,0.829h0.271v0.969v0.713v7.564h-0.293l-1.706,0.369v1.572h1.452l1.694-0.277    l0.016,0.277h1.877v-1.752v-0.189V20.98h1.068v7.563v0.188v1.754h1.879l0.014-0.278l1.697,0.278h1.451v-1.573L26.006,28.545z" fill="#FFFFFF"/>
		<path d="M20.965,14.117c2.088-2.008,3.812-3.659,4.565-4.358l-1.72-0.323l-1.566,1.879l-1.621-1.879l-2.947,0.492l-0.797,1.794    l4.543-0.001L20.965,14.117z" fill="#FFFFFF"/>
		<path d="M4.329,12.42c0.002,0.004,0.005,0.007,0.007,0.012c0.055,0.104,0.112,0.198,0.175,0.271    c0.039,0.045,0.1,0.106,0.172,0.179c0.023,0.023,0.055,0.054,0.082,0.08c0.055,0.053,0.112,0.108,0.18,0.172    c0.04,0.037,0.083,0.077,0.127,0.118c0.069,0.064,0.143,0.132,0.221,0.203c0.05,0.046,0.1,0.091,0.152,0.139    c0.082,0.075,0.169,0.153,0.259,0.233c0.057,0.051,0.111,0.101,0.172,0.154c0.113,0.102,0.233,0.208,0.355,0.316    c0.04,0.035,0.076,0.068,0.117,0.104c0.156,0.139,0.318,0.281,0.484,0.427c0.098,0.087,0.198,0.174,0.298,0.262    c0.076,0.066,0.151,0.132,0.229,0.199c0.1,0.087,0.2,0.175,0.301,0.263c0.076,0.066,0.152,0.132,0.229,0.199    c0.118,0.102,0.233,0.202,0.351,0.304c0.037,0.032,0.073,0.063,0.11,0.096c0.739,0.641,1.431,1.234,1.936,1.668    c0.077,0.065,0.148,0.127,0.217,0.186c0.015,0.014,0.028,0.023,0.043,0.037c0.04,0.033,0.085,0.072,0.12,0.104l0,0    c0.214,0.183,0.349,0.297,0.384,0.328l0,0c0.006,0.004,0.024,0.021,0.024,0.021l0.479-0.521l0,0l0.938-1.021    c0,0-0.04-0.037-0.104-0.098c-0.175-0.162-0.57-0.531-1.081-1.006c-0.195-0.184-0.411-0.384-0.639-0.596l0,0    c-1.23-1.145-2.848-2.647-4.096-3.801c-0.001-0.001-0.002-0.002-0.004-0.004c-0.416-0.384-0.787-0.727-1.091-1.005    c-0.008-0.007-0.016-0.015-0.023-0.021c-0.282-0.259-0.5-0.456-0.635-0.576C4.798,9.828,4.783,9.815,4.771,9.803    C4.714,9.755,4.672,9.719,4.662,9.711C4.58,9.662,4.507,9.641,4.439,9.632C4.433,9.631,4.422,9.623,4.416,9.623    C4.404,9.622,4.396,9.63,4.385,9.631c-0.046,0-0.089,0.012-0.127,0.031c-0.003,0.001-0.006,0-0.009,0.002v0.002    c-0.48,0.269-0.346,1.922,0.078,2.751L4.329,12.42L4.329,12.42z" fill="#FFFFFF"/>
		<path d="M8.241,11.019L6.674,9.14L5.104,9.435c0.645,0.567,3.037,2.784,5.56,5.132l-0.49-2.846l3.565,0.001l-0.928-2.09    L9.862,9.14L8.241,11.019z" fill="#FFFFFF"/>
		<path d="M11.922,28.249v-7.563v-0.715v-0.968h0.271L12.2,18.47h-0.433l-0.329,0.358l-0.325,0.355l-0.366-0.312    c-0.226-0.191-5.155-4.395-6.396-5.615l0.118,4.161l0.08,1.586h0.222v0.968v0.715v7.563H4.479l-1.706,0.369v1.573h1.451    l1.697-0.278l0.014,0.278h1.878v-1.754v-0.188v-7.563h1.069v7.563v0.188v1.754h1.877l0.016-0.278l1.694,0.278h1.452v-1.573    l-1.706-0.369H11.922z" fill="#FFFFFF"/>
	</g>
</g>
<g>
</g>
<g>
</g>
<g>
</g>
<g>
</g>
<g>
</g>
<g>
</g>
<g>
</g>
<g>
</g>
<g>
</g>
<g>
</g>
<g>
</g>
<g>
</g>
<g>
</g>
<g>
</g>
<g>
</g>
</svg>
