<?xml version="1.0" encoding="UTF-8"?>
<!-- Generator: Adobe Illustrator 19.2.1, SVG Export Plug-In . SVG Version: 6.00 Build 0)  -->
<svg version="1.1" id="Capa_1" xmlns="http://www.w3.org/2000/svg" xmlns:xlink="http://www.w3.org/1999/xlink" x="0px" y="0px" viewBox="0 0 600 600" style="enable-background:new 0 0 600 600;" xml:space="preserve">
<style type="text/css">
	.st0{fill:#F1F5F9;}
</style>
<path class="st0" d="M27,585c5.8,5.6,13.4,8.6,21.4,8.6c8.5,0,16.4-3.4,22.3-9.5L211.2,438c39.9,28.1,86.6,42.8,135.6,42.8  c130.5,0,236.7-106.2,236.7-236.7S477.3,7.4,346.8,7.4S110.1,113.6,110.1,244.1c0,55.9,19.7,109.5,55.5,152.2L26.1,541.4  C14.3,553.7,14.7,573.2,27,585z M521.8,244.1c0,96.5-78.5,175-175,175s-175-78.5-175-175s78.5-175,175-175S521.8,147.6,521.8,244.1z  "/>
</svg>