<?xml version="1.0" encoding="iso-8859-1"?>
<!-- Generator: Adobe Illustrator 16.0.0, SVG Export Plug-In . SVG Version: 6.00 Build 0)  -->
<!DOCTYPE svg PUBLIC "-//W3C//DTD SVG 1.1//EN" "http://www.w3.org/Graphics/SVG/1.1/DTD/svg11.dtd">
<svg xmlns="http://www.w3.org/2000/svg" xmlns:xlink="http://www.w3.org/1999/xlink" version="1.1" id="Capa_1" x="0px" y="0px" width="512px" height="512px" viewBox="0 0 27.246 27.246" style="enable-background:new 0 0 27.246 27.246;" xml:space="preserve">
<g>
	<g>
		<path d="M7.174,4.642c1.168,0,2.117-1.355,2.117-2.524C9.292,0.948,8.343,0,7.174,0c-1.17,0-2.118,0.948-2.118,2.118    C5.057,3.286,6.004,4.642,7.174,4.642z" fill="#02224f"/>
		<path d="M20.073,4.642c1.168,0,2.117-1.355,2.117-2.524C22.19,0.948,21.241,0,20.073,0c-1.17,0-2.118,0.948-2.118,2.118    C17.955,3.286,18.903,4.642,20.073,4.642z" fill="#02224f"/>
		<path d="M8.576,17.469c-0.25-0.027-0.485-0.109-0.7-0.234l0.308,3.812c0.042,0.525,0.481,0.924,0.999,0.924    c0.028,0,0.055,0,0.082-0.002c0.091-0.008,0.17-0.044,0.252-0.072l0.376-4.664l-0.011-0.119    C9.523,17.385,9.059,17.527,8.576,17.469z" fill="#02224f"/>
		<path d="M7.868,7.919c0.014-0.062,0.046-0.192,0.118-0.333c0.062-0.118,0.13-0.202,0.171-0.253    c0.077-0.101,0.148-0.196,0.258-0.29c0.121-0.105,0.24-0.167,0.32-0.208l0.315-0.153c0.215-0.075,1.128-0.385,2.253-0.616    c-0.005-0.017-0.011-0.032-0.016-0.049c-0.092-0.107-0.171-0.228-0.252-0.346c-0.029-0.019-0.06-0.036-0.09-0.054    c-0.046-0.028-0.085-0.064-0.137-0.084C10.741,5.509,9.416,5.035,8.04,4.87L7.284,5.248H7.278l0.449,3.503l0.06-0.538    C7.807,8.072,7.849,7.969,7.868,7.919z" fill="#02224f"/>
		<path d="M6.504,9.64l0.563-4.392H7.062L6.312,4.873c-1.251,0.148-2.459,0.55-2.721,0.643c-0.002,0-0.004,0.001-0.006,0.001    C3.562,5.525,3.544,5.532,3.539,5.534c-0.035,0.013-0.061,0.04-0.094,0.057c-0.057,0.03-0.112,0.057-0.162,0.1    C3.24,5.728,3.208,5.774,3.174,5.818C3.144,5.859,3.109,5.894,3.085,5.94C3.058,5.997,3.043,6.056,3.027,6.118    c-0.01,0.038-0.031,0.071-0.035,0.111l-0.67,6.028c-0.051,0.459,0.28,0.873,0.74,0.924c0.031,0.004,0.062,0.006,0.093,0.006    c0.422,0,0.783-0.316,0.832-0.745l0.609-5.491C4.667,6.93,4.746,6.906,4.829,6.883v5.716l-0.667,8.286    c-0.044,0.555,0.368,1.038,0.922,1.084c0.027,0.002,0.054,0.002,0.081,0.002c0.519,0,0.958-0.397,1-0.924l0.604-7.49    c0.124,0.055,0.261,0.087,0.405,0.087c0.004,0,0.008-0.001,0.013-0.001l0.393-3.54l-0.405,0.708L6.504,9.64z" fill="#02224f"/>
		<path d="M19.96,5.248l-0.749-0.375c-1.251,0.148-2.459,0.55-2.721,0.643c-0.002,0-0.004,0.001-0.006,0.001    c-0.024,0.008-0.041,0.015-0.047,0.017c-0.035,0.013-0.062,0.04-0.094,0.057c-0.048,0.025-0.093,0.051-0.136,0.083    c-0.081,0.117-0.159,0.236-0.25,0.344c-0.006,0.016-0.011,0.032-0.016,0.048c1.264,0.262,2.272,0.623,2.328,0.643    c0.146,0.053,0.248,0.126,0.304,0.166c0.094,0.052,0.168,0.098,0.236,0.154c0.138,0.117,0.224,0.234,0.278,0.311    c0.068,0.083,0.122,0.156,0.165,0.239c0.077,0.148,0.11,0.282,0.133,0.371c0.01,0.019,0.053,0.122,0.067,0.261l0.062,0.544    l0.448-3.505H19.96V5.248z" fill="#02224f"/>
		<path d="M17.366,17.111l-0.012,0.133l0.376,4.65c0.082,0.028,0.161,0.064,0.253,0.071c0.027,0.003,0.054,0.003,0.081,0.003    c0.519,0,0.958-0.397,1-0.924l0.308-3.812c-0.216,0.125-0.455,0.209-0.711,0.236C18.15,17.52,17.719,17.381,17.366,17.111z" fill="#02224f"/>
		<path d="M24.253,6.227c-0.004-0.039-0.024-0.072-0.034-0.11c-0.017-0.062-0.029-0.122-0.059-0.18    c-0.021-0.039-0.052-0.071-0.079-0.107c-0.038-0.052-0.075-0.103-0.124-0.145c-0.034-0.028-0.075-0.046-0.112-0.068    c-0.047-0.028-0.085-0.064-0.138-0.084c-0.066-0.024-1.392-0.498-2.768-0.663l-0.756,0.378h-0.005l0.562,4.392l-0.67,1.17    l-0.406-0.709l0.395,3.541c0.005,0,0.009,0.001,0.013,0.001c0.146,0,0.281-0.032,0.405-0.087l0.604,7.49    c0.042,0.525,0.481,0.925,1,0.925c0.027,0,0.055-0.002,0.081-0.004c0.555-0.045,0.966-0.529,0.922-1.082l-0.667-8.287V6.882    C22.5,6.905,22.579,6.929,22.65,6.95l0.609,5.491c0.049,0.429,0.409,0.745,0.831,0.745c0.03,0,0.062-0.003,0.095-0.006    c0.459-0.051,0.79-0.465,0.737-0.924L24.253,6.227z" fill="#02224f"/>
		<path d="M13.624,6.393c1.406,0,2.548-1.632,2.548-3.039c0-1.407-1.142-2.549-2.548-2.549c-1.407,0-2.549,1.142-2.549,2.549    C11.075,4.761,12.217,6.393,13.624,6.393z" fill="#02224f"/>
		<path d="M18.613,8.168c-0.02-0.074-0.035-0.147-0.07-0.216c-0.024-0.048-0.062-0.086-0.095-0.129    c-0.046-0.063-0.09-0.124-0.149-0.175c-0.041-0.034-0.09-0.055-0.136-0.082c-0.055-0.034-0.103-0.078-0.165-0.101    c-0.08-0.029-1.675-0.601-3.331-0.799L13.757,7.12h-0.006l0.678,5.286l-0.806,1.408l-0.806-1.408l0.678-5.286h-0.008l-0.901-0.451    c-1.505,0.18-2.959,0.663-3.274,0.773C9.311,7.443,9.309,7.444,9.306,7.444C9.277,7.454,9.256,7.462,9.25,7.465    C9.207,7.481,9.177,7.513,9.138,7.533C9.069,7.569,9,7.6,8.942,7.651c-0.052,0.045-0.09,0.101-0.131,0.154    C8.773,7.854,8.732,7.896,8.705,7.951c-0.034,0.067-0.05,0.14-0.069,0.214C8.624,8.211,8.599,8.251,8.593,8.3l-0.806,7.255    c-0.062,0.553,0.337,1.051,0.89,1.112c0.038,0.005,0.075,0.007,0.113,0.007c0.506,0,0.942-0.381,0.999-0.896l0.735-6.608    c0.085-0.026,0.179-0.054,0.279-0.082v6.878L10,25.939c-0.054,0.666,0.442,1.248,1.108,1.303c0.033,0.002,0.065,0.004,0.099,0.004    c0.624,0,1.152-0.479,1.204-1.111l0.725-9.015c0.149,0.065,0.314,0.104,0.488,0.104s0.339-0.039,0.488-0.104l0.725,9.015    c0.053,0.633,0.58,1.111,1.204,1.111c0.033,0,0.065-0.002,0.1-0.004c0.666-0.055,1.161-0.637,1.107-1.303l-0.803-9.974V9.088    c0.101,0.028,0.194,0.056,0.279,0.082l0.734,6.608c0.058,0.516,0.493,0.896,0.999,0.896c0.038,0,0.075-0.003,0.113-0.007    c0.553-0.062,0.951-0.56,0.89-1.112L18.655,8.3C18.65,8.254,18.625,8.214,18.613,8.168z" fill="#02224f"/>
	</g>
</g>
<g>
</g>
<g>
</g>
<g>
</g>
<g>
</g>
<g>
</g>
<g>
</g>
<g>
</g>
<g>
</g>
<g>
</g>
<g>
</g>
<g>
</g>
<g>
</g>
<g>
</g>
<g>
</g>
<g>
</g>
</svg>
