<?xml version="1.0" encoding="utf-8"?>
<!-- Generator: Adobe Illustrator 19.2.1, SVG Export Plug-In . SVG Version: 6.00 Build 0)  -->
<svg version="1.1" id="Layer_1" xmlns="http://www.w3.org/2000/svg" xmlns:xlink="http://www.w3.org/1999/xlink" x="0px" y="0px"
	 viewBox="0 0 600 600" style="enable-background:new 0 0 600 600;" xml:space="preserve">
<style type="text/css">
	.st0{fill:#F1F5F9;}
</style>
<g transform="translate(0.000000,144.000000) scale(0.100000,-0.100000)">
	<path class="st0" d="M2614.1,882.5C1310.8,669.4,391.8-182.7,208-1344c-108.6-710.1,284-1616.6,910.6-2109.5
		c1236.5-973.3,2974.2-931.5,4035.2,96.1c430.3,417.7,672.5,910.6,718.5,1470.4c66.8,743.5-304.9,1562.3-956.6,2117.8
		c-246.5,213-772.8,476.2-1132,568.1C3524.7,869.9,2835.5,915.9,2614.1,882.5z M3553.9,682c355.1-66.8,814.6-250.6,772.8-317.5
		c-12.5-20.9,0-41.8,33.4-41.8c29.2,0,96.1-37.6,146.2-83.5c83.5-79.4,91.9-129.5,91.9-513.8c0-484.6-20.9-530.5-254.8-530.5
		c-171.3,0-217.2-33.4-162.9-125.3c29.2-45.9,150.4,4.2,580.6,225.6L5312.5-425l146.2-321.6c263.2-563.9,242.3-1282.4-45.9-1854.7
		c-58.5-112.8-112.8-208.9-117-208.9c-25.1,0-1219.7,634.9-1253.2,664.2c-16.7,16.7,0,96.1,41.8,175.4
		c104.4,204.7,91.9,563.9-25.1,772.8c-66.8,121.1-87.7,217.2-79.4,350.9l12.5,188l221.4,12.5l217.2,12.5v375.9v371.8h-793.7h-793.7
		v-375.9V-638h208.9h204.7l12.5-919c12.5-1052.7,66.8-948.2-455.3-923.2l-96.1,4.2v1294.9V118L2376,105.5L2029.3,93l-20.9-626.6
		c-12.5-430.3-37.6-660-79.4-731c-79.4-137.8-75.2-526.3,8.4-722.7l66.8-154.6l-622.4-313.3c-346.7-171.3-634.9-313.3-647.5-313.3
		c-45.9,0-233.9,434.4-292.4,676.7C312.4-1536.1,412.7-909.6,705.1-479.3c29.2,41.8,158.7-12.5,559.7-221.4
		c288.2-150.4,534.7-271.5,547.2-271.5c16.7,0,29.2,259,29.2,580.6c0,522.2-8.4,589-87.7,689.2l-87.7,108.6l238.1,108.6
		C2350.9,719.6,2981.7,782.2,3553.9,682z M2793.7-2609.7c208.9-50.1,359.2-33.4,739.4,71c62.7,16.7,108.6-16.7,192.2-154.6
		c62.7-100.3,217.2-342.5,346.7-543c129.5-200.5,233.9-380.1,233.9-396.8c0-41.8-413.5-208.9-647.5-263.2
		c-91.9-25.1-384.3-41.8-651.6-41.8c-405.2-4.2-538.9,16.7-814.6,100.3c-183.8,58.5-367.6,133.7-409.4,162.9
		c-79.4,58.5-75.2,66.8,62.7,284c79.4,125.3,238.1,371.8,350.9,551.4c171.3,263.2,225.6,317.5,292.4,300.8
		C2534.7-2551.2,2672.6-2584.6,2793.7-2609.7z"/>
</g>
</svg>
